<svg width="142" height="30" viewBox="0 0 142 30" fill="none" xmlns="http://www.w3.org/2000/svg">
<g clip-path="url(#clip0_114_835)">
<path d="M20.625 18.1034H15.375C13.9312 18.1034 12.75 19.3254 12.75 20.819V26.25C12.75 27.7435 13.9312 28.9655 15.375 28.9655H20.625C22.0688 28.9655 23.25 27.7435 23.25 26.25V20.819C23.25 19.3254 22.0688 18.1034 20.625 18.1034ZM32.8258 0H27.5758C26.132 0 24.9508 1.22198 24.9508 2.71552V8.14655C24.9508 9.64009 26.132 10.8621 27.5758 10.8621H32.8258C34.2695 10.8621 35.4508 9.64009 35.4508 8.14655V2.71552C35.4508 1.22198 34.3187 0 32.8258 0ZM11 2.71552C11 1.22198 9.81875 0 8.375 0H3.125C1.68125 0 0.5 1.22198 0.5 2.71552V8.14655C0.5 9.64009 1.68125 10.8621 3.125 10.8621H7.4907L11.4851 18.1034C12.0938 17.0286 13.2094 16.2931 14.5 16.2931L11 9.92861V7.24138H23.25V3.62069H11V2.71552Z" fill="white"/>
</g>
<path d="M48.236 23V6.2H54.524C55.948 6.2 57.172 6.432 58.196 6.896C59.22 7.344 60.004 8 60.548 8.864C61.108 9.712 61.388 10.744 61.388 11.96C61.388 13.144 61.108 14.168 60.548 15.032C60.004 15.88 59.22 16.536 58.196 17C57.172 17.464 55.948 17.696 54.524 17.696H49.22L50.012 16.856V23H48.236ZM50.012 17L49.22 16.136H54.476C56.156 16.136 57.428 15.776 58.292 15.056C59.172 14.32 59.612 13.288 59.612 11.96C59.612 10.616 59.172 9.576 58.292 8.84C57.428 8.104 56.156 7.736 54.476 7.736H49.22L50.012 6.896V17ZM65.1026 23V5.192H66.8066V23H65.1026ZM79.4439 23V20.216L79.3719 19.76V15.104C79.3719 14.032 79.0679 13.208 78.4599 12.632C77.8679 12.056 76.9799 11.768 75.7959 11.768C74.9799 11.768 74.2039 11.904 73.4679 12.176C72.7319 12.448 72.1079 12.808 71.5959 13.256L70.8279 11.984C71.4679 11.44 72.2359 11.024 73.1319 10.736C74.0279 10.432 74.9719 10.28 75.9639 10.28C77.5959 10.28 78.8519 10.688 79.7319 11.504C80.6279 12.304 81.0759 13.528 81.0759 15.176V23H79.4439ZM75.0999 23.12C74.1559 23.12 73.3319 22.968 72.6279 22.664C71.9399 22.344 71.4119 21.912 71.0439 21.368C70.6759 20.808 70.4919 20.168 70.4919 19.448C70.4919 18.792 70.6439 18.2 70.9479 17.672C71.2679 17.128 71.7799 16.696 72.4839 16.376C73.2039 16.04 74.1639 15.872 75.3639 15.872H79.7079V17.144H75.4119C74.1959 17.144 73.3479 17.36 72.8679 17.792C72.4039 18.224 72.1719 18.76 72.1719 19.4C72.1719 20.12 72.4519 20.696 73.0119 21.128C73.5719 21.56 74.3559 21.776 75.3639 21.776C76.3239 21.776 77.1479 21.56 77.8359 21.128C78.5399 20.68 79.0519 20.04 79.3719 19.208L79.7559 20.384C79.4359 21.216 78.8759 21.88 78.0759 22.376C77.2919 22.872 76.2999 23.12 75.0999 23.12ZM92.1361 10.28C93.1601 10.28 94.0561 10.48 94.8241 10.88C95.6081 11.264 96.2161 11.856 96.6481 12.656C97.0961 13.456 97.3201 14.464 97.3201 15.68V23H95.6161V15.848C95.6161 14.52 95.2801 13.52 94.6081 12.848C93.9521 12.16 93.0241 11.816 91.8241 11.816C90.9281 11.816 90.1441 12 89.4721 12.368C88.8161 12.72 88.3041 13.24 87.9361 13.928C87.5841 14.6 87.4081 15.416 87.4081 16.376V23H85.7041V10.4H87.3361V13.856L87.0721 13.208C87.4721 12.296 88.1121 11.584 88.9921 11.072C89.8721 10.544 90.9201 10.28 92.1361 10.28ZM102.283 23V6.2H108.571C109.995 6.2 111.219 6.432 112.243 6.896C113.267 7.344 114.051 8 114.595 8.864C115.155 9.712 115.435 10.744 115.435 11.96C115.435 13.144 115.155 14.168 114.595 15.032C114.051 15.88 113.267 16.536 112.243 17C111.219 17.464 109.995 17.696 108.571 17.696H103.267L104.059 16.856V23H102.283ZM104.059 17L103.267 16.136H108.523C110.203 16.136 111.475 15.776 112.339 15.056C113.219 14.32 113.659 13.288 113.659 11.96C113.659 10.616 113.219 9.576 112.339 8.84C111.475 8.104 110.203 7.736 108.523 7.736H103.267L104.059 6.896V17ZM118.61 23V10.4H120.242V13.832L120.074 13.232C120.426 12.272 121.018 11.544 121.85 11.048C122.682 10.536 123.714 10.28 124.946 10.28V11.936C124.882 11.936 124.818 11.936 124.754 11.936C124.69 11.92 124.626 11.912 124.562 11.912C123.234 11.912 122.194 12.32 121.442 13.136C120.69 13.936 120.314 15.08 120.314 16.568V23H118.61ZM133.075 23.12C131.859 23.12 130.763 22.848 129.787 22.304C128.827 21.744 128.067 20.984 127.507 20.024C126.947 19.048 126.667 17.936 126.667 16.688C126.667 15.424 126.947 14.312 127.507 13.352C128.067 12.392 128.827 11.64 129.787 11.096C130.747 10.552 131.843 10.28 133.075 10.28C134.323 10.28 135.427 10.552 136.387 11.096C137.363 11.64 138.123 12.392 138.667 13.352C139.227 14.312 139.507 15.424 139.507 16.688C139.507 17.936 139.227 19.048 138.667 20.024C138.123 20.984 137.363 21.744 136.387 22.304C135.411 22.848 134.307 23.12 133.075 23.12ZM133.075 21.608C133.987 21.608 134.795 21.408 135.499 21.008C136.203 20.592 136.755 20.016 137.155 19.28C137.571 18.528 137.779 17.664 137.779 16.688C137.779 15.696 137.571 14.832 137.155 14.096C136.755 13.36 136.203 12.792 135.499 12.392C134.795 11.976 133.995 11.768 133.099 11.768C132.203 11.768 131.403 11.976 130.699 12.392C129.995 12.792 129.435 13.36 129.019 14.096C128.603 14.832 128.395 15.696 128.395 16.688C128.395 17.664 128.603 18.528 129.019 19.28C129.435 20.016 129.995 20.592 130.699 21.008C131.403 21.408 132.195 21.608 133.075 21.608Z" fill="white"/>
<defs>
<clipPath id="clip0_114_835">
<rect width="35" height="28.9655" fill="white" transform="translate(0.5)"/>
</clipPath>
</defs>
</svg>
