<svg width="45" height="54" viewBox="0 0 45 54" fill="none" xmlns="http://www.w3.org/2000/svg">
<path d="M21.2324 24.3667H33.7324" stroke="white" stroke-width="2" stroke-linecap="round" stroke-linejoin="round"/>
<path d="M21.2324 15.6333H33.7324" stroke="white" stroke-width="2" stroke-linecap="round" stroke-linejoin="round"/>
<path d="M21.2324 6.8667H33.7324" stroke="white" stroke-width="2" stroke-linecap="round" stroke-linejoin="round"/>
<path d="M11.2324 6.8667L12.4658 8.10003L16.1991 4.3667" stroke="white" stroke-width="2" stroke-linecap="round" stroke-linejoin="round"/>
<path d="M11.2324 15.6333L12.4658 16.8666L16.1991 13.1333" stroke="white" stroke-width="2" stroke-linecap="round" stroke-linejoin="round"/>
<path d="M11.2324 24.3667L12.4658 25.6L16.1991 21.8667" stroke="white" stroke-width="2" stroke-linecap="round" stroke-linejoin="round"/>
<path d="M8.096 36.848V38.032H5.056V48H3.6V38.032H0.544V36.848H8.096ZM9.34425 43.584C9.34425 42.688 9.52558 41.904 9.88825 41.232C10.2509 40.5493 10.7469 40.0213 11.3763 39.648C12.0163 39.2747 12.7256 39.088 13.5043 39.088C14.2723 39.088 14.9389 39.2533 15.5043 39.584C16.0696 39.9147 16.4909 40.3307 16.7683 40.832V39.232H18.2403V48H16.7683V46.368C16.4803 46.88 16.0483 47.3067 15.4723 47.648C14.9069 47.9787 14.2456 48.144 13.4883 48.144C12.7096 48.144 12.0056 47.952 11.3763 47.568C10.7469 47.184 10.2509 46.6453 9.88825 45.952C9.52558 45.2587 9.34425 44.4693 9.34425 43.584ZM16.7683 43.6C16.7683 42.9387 16.6349 42.3627 16.3683 41.872C16.1016 41.3813 15.7389 41.008 15.2803 40.752C14.8323 40.4853 14.3363 40.352 13.7923 40.352C13.2483 40.352 12.7523 40.48 12.3043 40.736C11.8563 40.992 11.4989 41.3653 11.2323 41.856C10.9656 42.3467 10.8323 42.9227 10.8323 43.584C10.8323 44.256 10.9656 44.8427 11.2323 45.344C11.4989 45.8347 11.8563 46.2133 12.3043 46.48C12.7523 46.736 13.2483 46.864 13.7923 46.864C14.3363 46.864 14.8323 46.736 15.2803 46.48C15.7389 46.2133 16.1016 45.8347 16.3683 45.344C16.6349 44.8427 16.7683 44.2613 16.7683 43.6ZM23.8048 48.144C23.1328 48.144 22.5301 48.032 21.9968 47.808C21.4634 47.5733 21.0421 47.2533 20.7328 46.848C20.4234 46.432 20.2528 45.9573 20.2208 45.424H21.7248C21.7674 45.8613 21.9701 46.2187 22.3328 46.496C22.7061 46.7733 23.1914 46.912 23.7888 46.912C24.3434 46.912 24.7808 46.7893 25.1008 46.544C25.4208 46.2987 25.5808 45.9893 25.5808 45.616C25.5808 45.232 25.4101 44.9493 25.0688 44.768C24.7274 44.576 24.1994 44.3893 23.4848 44.208C22.8341 44.0373 22.3008 43.8667 21.8848 43.696C21.4794 43.5147 21.1274 43.2533 20.8288 42.912C20.5408 42.56 20.3968 42.1013 20.3968 41.536C20.3968 41.088 20.5301 40.6773 20.7968 40.304C21.0634 39.9307 21.4421 39.6373 21.9328 39.424C22.4234 39.2 22.9834 39.088 23.6128 39.088C24.5834 39.088 25.3674 39.3333 25.9648 39.824C26.5621 40.3147 26.8821 40.9867 26.9248 41.84H25.4688C25.4368 41.3813 25.2501 41.0133 24.9088 40.736C24.5781 40.4587 24.1301 40.32 23.5648 40.32C23.0421 40.32 22.6261 40.432 22.3168 40.656C22.0074 40.88 21.8528 41.1733 21.8528 41.536C21.8528 41.824 21.9434 42.064 22.1248 42.256C22.3168 42.4373 22.5514 42.5867 22.8288 42.704C23.1168 42.8107 23.5114 42.9333 24.0128 43.072C24.6421 43.2427 25.1541 43.4133 25.5488 43.584C25.9434 43.744 26.2794 43.9893 26.5568 44.32C26.8448 44.6507 26.9941 45.0827 27.0048 45.616C27.0048 46.096 26.8714 46.528 26.6048 46.912C26.3381 47.296 25.9594 47.6 25.4688 47.824C24.9888 48.0373 24.4341 48.144 23.8048 48.144ZM33.9561 48L30.5161 44.128V48H29.0601V36.16H30.5161V43.12L33.8921 39.232H35.9241L31.7961 43.6L35.9401 48H33.9561ZM40.3985 48.144C39.7265 48.144 39.1238 48.032 38.5905 47.808C38.0572 47.5733 37.6358 47.2533 37.3265 46.848C37.0172 46.432 36.8465 45.9573 36.8145 45.424H38.3185C38.3612 45.8613 38.5638 46.2187 38.9265 46.496C39.2998 46.7733 39.7852 46.912 40.3825 46.912C40.9372 46.912 41.3745 46.7893 41.6945 46.544C42.0145 46.2987 42.1745 45.9893 42.1745 45.616C42.1745 45.232 42.0038 44.9493 41.6625 44.768C41.3212 44.576 40.7932 44.3893 40.0785 44.208C39.4278 44.0373 38.8945 43.8667 38.4785 43.696C38.0732 43.5147 37.7212 43.2533 37.4225 42.912C37.1345 42.56 36.9905 42.1013 36.9905 41.536C36.9905 41.088 37.1238 40.6773 37.3905 40.304C37.6572 39.9307 38.0358 39.6373 38.5265 39.424C39.0172 39.2 39.5772 39.088 40.2065 39.088C41.1772 39.088 41.9612 39.3333 42.5585 39.824C43.1558 40.3147 43.4758 40.9867 43.5185 41.84H42.0625C42.0305 41.3813 41.8438 41.0133 41.5025 40.736C41.1718 40.4587 40.7238 40.32 40.1585 40.32C39.6358 40.32 39.2198 40.432 38.9105 40.656C38.6012 40.88 38.4465 41.1733 38.4465 41.536C38.4465 41.824 38.5372 42.064 38.7185 42.256C38.9105 42.4373 39.1452 42.5867 39.4225 42.704C39.7105 42.8107 40.1052 42.9333 40.6065 43.072C41.2358 43.2427 41.7478 43.4133 42.1425 43.584C42.5372 43.744 42.8732 43.9893 43.1505 44.32C43.4385 44.6507 43.5878 45.0827 43.5985 45.616C43.5985 46.096 43.4652 46.528 43.1985 46.912C42.9318 47.296 42.5532 47.6 42.0625 47.824C41.5825 48.0373 41.0278 48.144 40.3985 48.144Z" fill="white"/>
</svg>
