<svg width="67" height="54" viewBox="0 0 67 54" fill="none" xmlns="http://www.w3.org/2000/svg">
<g clip-path="url(#clip0_114_481)">
<path d="M48.5 14.985C48.5 6.7125 41.78 0 33.5 0C25.22 0 18.5 6.7125 18.5 14.985C18.5 19.5413 20.57 23.6475 23.81 26.4037C23.84 26.4338 23.87 26.4338 23.87 26.4638C24.14 26.6737 24.41 26.8837 24.71 27.0938C24.86 27.1838 24.98 27.3019 25.13 27.4219C27.6089 29.1026 30.5351 30.0007 33.53 30C36.5249 30.0007 39.4511 29.1026 41.93 27.4219C42.08 27.3319 42.2 27.2138 42.35 27.1219C42.62 26.9137 42.92 26.7038 43.19 26.4937C43.22 26.4638 43.25 26.4637 43.25 26.4338C46.43 23.6456 48.5 19.5413 48.5 14.985ZM33.5 28.1119C30.68 28.1119 28.1 27.2119 25.97 25.7137C26 25.4737 26.06 25.2356 26.12 24.9956C26.2988 24.3452 26.5609 23.7206 26.9 23.1375C27.23 22.5675 27.62 22.0575 28.1 21.6075C28.55 21.1575 29.09 20.7394 29.63 20.4094C30.2 20.0794 30.8 19.8394 31.46 19.6594C32.1251 19.4801 32.8111 19.3899 33.5 19.3913C35.545 19.3768 37.5148 20.1612 38.99 21.5775C39.68 22.2675 40.22 23.0775 40.61 24.0056C40.82 24.5456 40.97 25.1156 41.06 25.7137C38.846 27.2703 36.2064 28.1076 33.5 28.1119ZM28.91 14.2369C28.6457 13.6317 28.5127 12.9773 28.52 12.3169C28.52 11.6587 28.64 10.9987 28.91 10.3988C29.18 9.79875 29.54 9.26062 29.99 8.81063C30.44 8.36062 30.98 8.0025 31.58 7.7325C32.18 7.4625 32.84 7.3425 33.5 7.3425C34.19 7.3425 34.82 7.4625 35.42 7.7325C36.02 8.0025 36.56 8.3625 37.01 8.81063C37.46 9.26062 37.82 9.80062 38.09 10.3988C38.36 10.9987 38.48 11.6587 38.48 12.3169C38.48 13.0069 38.36 13.6369 38.09 14.235C37.8294 14.8261 37.4635 15.3649 37.01 15.825C36.5497 16.2778 36.011 16.6431 35.42 16.9031C34.1803 17.4126 32.7897 17.4126 31.55 16.9031C30.959 16.6431 30.4203 16.2778 29.96 15.825C29.5059 15.3716 29.1487 14.8325 28.91 14.2369ZM42.83 24.1856C42.83 24.1256 42.8 24.0956 42.8 24.0356C42.5049 23.097 42.0701 22.2083 41.51 21.3994C40.9494 20.5845 40.2605 19.8658 39.47 19.2712C38.8663 18.8171 38.2119 18.4345 37.52 18.1313C37.8348 17.9236 38.1264 17.6828 38.39 17.4131C38.8373 16.9716 39.2301 16.4781 39.56 15.9431C40.2244 14.8515 40.5676 13.5947 40.55 12.3169C40.5593 11.371 40.3755 10.4331 40.01 9.56063C39.6491 8.71995 39.1296 7.95667 38.48 7.3125C37.8313 6.67506 37.0679 6.16611 36.23 5.8125C35.3561 5.44761 34.417 5.26452 33.47 5.27437C32.5229 5.26511 31.5838 5.44885 30.71 5.81437C29.8649 6.16723 29.0996 6.68697 28.46 7.3425C27.8226 7.99048 27.3136 8.75329 26.96 9.59062C26.5945 10.4631 26.4107 11.401 26.42 12.3469C26.42 13.0069 26.51 13.6369 26.69 14.235C26.87 14.865 27.11 15.435 27.44 15.9731C27.74 16.5131 28.16 16.9931 28.61 17.4431C28.88 17.7131 29.18 17.9513 29.51 18.1612C28.8159 18.4726 28.1613 18.8654 27.56 19.3313C26.78 19.9313 26.09 20.6494 25.52 21.4294C24.9542 22.2349 24.5189 23.1246 24.23 24.0656C24.2 24.1256 24.2 24.1856 24.2 24.2156C21.83 21.8175 20.36 18.5812 20.36 14.985C20.36 7.7625 26.27 1.85812 33.5 1.85812C40.73 1.85812 46.64 7.7625 46.64 14.985C46.6361 18.4349 45.2662 21.7429 42.83 24.1856Z" fill="white"/>
</g>
<path d="M7.824 45.52H2.96L2.064 48H0.528L4.56 36.912H6.24L10.256 48H8.72L7.824 45.52ZM7.408 44.336L5.392 38.704L3.376 44.336H7.408ZM11.4693 43.6C11.4693 42.6933 11.6506 41.904 12.0133 41.232C12.3759 40.5493 12.8773 40.0213 13.5173 39.648C14.1679 39.2747 14.9093 39.088 15.7413 39.088C16.8186 39.088 17.7039 39.3493 18.3973 39.872C19.1013 40.3947 19.5653 41.12 19.7893 42.048H18.2213C18.0719 41.5147 17.7786 41.0933 17.3413 40.784C16.9146 40.4747 16.3813 40.32 15.7413 40.32C14.9093 40.32 14.2373 40.608 13.7253 41.184C13.2133 41.7493 12.9573 42.5547 12.9573 43.6C12.9573 44.656 13.2133 45.472 13.7253 46.048C14.2373 46.624 14.9093 46.912 15.7413 46.912C16.3813 46.912 16.9146 46.7627 17.3413 46.464C17.7679 46.1653 18.0613 45.7387 18.2213 45.184H19.7893C19.5546 46.08 19.0853 46.8 18.3813 47.344C17.6773 47.8773 16.7973 48.144 15.7413 48.144C14.9093 48.144 14.1679 47.9573 13.5173 47.584C12.8773 47.2107 12.3759 46.6827 12.0133 46C11.6506 45.3173 11.4693 44.5173 11.4693 43.6ZM21.188 43.6C21.188 42.6933 21.3693 41.904 21.732 41.232C22.0947 40.5493 22.596 40.0213 23.236 39.648C23.8867 39.2747 24.628 39.088 25.46 39.088C26.5373 39.088 27.4227 39.3493 28.116 39.872C28.82 40.3947 29.284 41.12 29.508 42.048H27.94C27.7907 41.5147 27.4973 41.0933 27.06 40.784C26.6333 40.4747 26.1 40.32 25.46 40.32C24.628 40.32 23.956 40.608 23.444 41.184C22.932 41.7493 22.676 42.5547 22.676 43.6C22.676 44.656 22.932 45.472 23.444 46.048C23.956 46.624 24.628 46.912 25.46 46.912C26.1 46.912 26.6333 46.7627 27.06 46.464C27.4867 46.1653 27.78 45.7387 27.94 45.184H29.508C29.2733 46.08 28.804 46.8 28.1 47.344C27.396 47.8773 26.516 48.144 25.46 48.144C24.628 48.144 23.8867 47.9573 23.236 47.584C22.596 47.2107 22.0947 46.6827 21.732 46C21.3693 45.3173 21.188 44.5173 21.188 43.6ZM35.2748 48.144C34.4534 48.144 33.7068 47.9573 33.0348 47.584C32.3734 47.2107 31.8508 46.6827 31.4668 46C31.0934 45.3067 30.9068 44.5067 30.9068 43.6C30.9068 42.704 31.0988 41.9147 31.4828 41.232C31.8774 40.5387 32.4108 40.0107 33.0828 39.648C33.7548 39.2747 34.5068 39.088 35.3388 39.088C36.1708 39.088 36.9228 39.2747 37.5948 39.648C38.2668 40.0107 38.7948 40.5333 39.1788 41.216C39.5734 41.8987 39.7708 42.6933 39.7708 43.6C39.7708 44.5067 39.5681 45.3067 39.1628 46C38.7681 46.6827 38.2294 47.2107 37.5468 47.584C36.8641 47.9573 36.1068 48.144 35.2748 48.144ZM35.2748 46.864C35.7974 46.864 36.2881 46.7413 36.7468 46.496C37.2054 46.2507 37.5734 45.8827 37.8508 45.392C38.1388 44.9013 38.2828 44.304 38.2828 43.6C38.2828 42.896 38.1441 42.2987 37.8668 41.808C37.5894 41.3173 37.2268 40.9547 36.7788 40.72C36.3308 40.4747 35.8454 40.352 35.3228 40.352C34.7894 40.352 34.2988 40.4747 33.8508 40.72C33.4134 40.9547 33.0614 41.3173 32.7948 41.808C32.5281 42.2987 32.3948 42.896 32.3948 43.6C32.3948 44.3147 32.5228 44.9173 32.7788 45.408C33.0454 45.8987 33.3974 46.2667 33.8348 46.512C34.2721 46.7467 34.7521 46.864 35.2748 46.864ZM49.4611 39.232V48H48.0051V46.704C47.7278 47.152 47.3385 47.504 46.8371 47.76C46.3465 48.0053 45.8025 48.128 45.2051 48.128C44.5225 48.128 43.9091 47.9893 43.3651 47.712C42.8211 47.424 42.3891 46.9973 42.0691 46.432C41.7598 45.8667 41.6051 45.1787 41.6051 44.368V39.232H43.0451V44.176C43.0451 45.04 43.2638 45.7067 43.7011 46.176C44.1385 46.6347 44.7358 46.864 45.4931 46.864C46.2718 46.864 46.8851 46.624 47.3331 46.144C47.7811 45.664 48.0051 44.9653 48.0051 44.048V39.232H49.4611ZM56.1915 39.072C57.2582 39.072 58.1222 39.3973 58.7835 40.048C59.4448 40.688 59.7755 41.616 59.7755 42.832V48H58.3355V43.04C58.3355 42.1653 58.1168 41.4987 57.6795 41.04C57.2422 40.5707 56.6448 40.336 55.8875 40.336C55.1195 40.336 54.5062 40.576 54.0475 41.056C53.5995 41.536 53.3755 42.2347 53.3755 43.152V48H51.9195V39.232H53.3755V40.48C53.6635 40.032 54.0528 39.6853 54.5435 39.44C55.0448 39.1947 55.5942 39.072 56.1915 39.072ZM63.9299 40.432V45.6C63.9299 46.0267 64.0205 46.3307 64.2019 46.512C64.3832 46.6827 64.6979 46.768 65.1459 46.768H66.2179V48H64.9059C64.0952 48 63.4872 47.8133 63.0819 47.44C62.6765 47.0667 62.4739 46.4533 62.4739 45.6V40.432H61.3379V39.232H62.4739V37.024H63.9299V39.232H66.2179V40.432H63.9299Z" fill="white"/>
<defs>
<clipPath id="clip0_114_481">
<rect width="30" height="30" fill="white" transform="translate(18.5)"/>
</clipPath>
</defs>
</svg>
