<svg width="40" height="40" viewBox="0 0 40 40" fill="none" xmlns="http://www.w3.org/2000/svg">
<g clip-path="url(#clip0_152_417)">
<path d="M19.3379 29.1C19.38 29.1418 19.4261 29.1794 19.4754 29.2125L19.5504 29.2531C19.6067 29.2893 19.6692 29.3147 19.7347 29.3281L19.8129 29.35C19.9325 29.3736 20.0557 29.3736 20.1754 29.35L20.2566 29.325L20.3504 29.2969C20.3825 29.282 20.4138 29.2653 20.4441 29.2469L20.5097 29.2094C20.5615 29.1747 20.6096 29.1349 20.6535 29.0906L29.0629 20.6906C29.1677 20.609 29.2541 20.506 29.3161 20.3885C29.3782 20.2709 29.4146 20.1415 29.4228 20.0089C29.431 19.8762 29.411 19.7433 29.364 19.619C29.3169 19.4947 29.244 19.3818 29.15 19.2878C29.056 19.1938 28.9431 19.1209 28.8188 19.0739C28.6945 19.0269 28.5616 19.0068 28.429 19.015C28.2963 19.0233 28.1669 19.0596 28.0494 19.1217C27.9318 19.1838 27.8289 19.2701 27.7472 19.375L20.9379 26.175L20.9379 0.9375C20.9379 0.68886 20.8391 0.450403 20.6633 0.274587C20.4874 0.098772 20.249 -6.30423e-10 20.0004 -6.13938e-10C19.7517 -5.97453e-10 19.5133 0.098772 19.3374 0.274587C19.1616 0.450403 19.0629 0.68886 19.0629 0.9375L19.0629 26.175L12.2535 19.375C12.0731 19.2346 11.8477 19.165 11.6196 19.1792C11.3915 19.1934 11.1764 19.2904 11.0148 19.452C10.8532 19.6136 10.7562 19.8286 10.742 20.0567C10.7279 20.2848 10.7975 20.5103 10.9379 20.6906L19.3379 29.1Z" fill="#DDDDDD"/>
<path d="M39.0625 27.3677C38.8139 27.3677 38.5754 27.4664 38.3996 27.6423C38.2238 27.8181 38.125 28.0565 38.125 28.3052L38.125 35.1802C38.125 35.9261 37.8287 36.6415 37.3012 37.1689C36.7738 37.6964 36.0584 37.9927 35.3125 37.9927L4.6875 37.9927C3.94158 37.9927 3.22621 37.6964 2.69876 37.1689C2.17132 36.6415 1.875 35.9261 1.875 35.1802L1.875 28.3052C1.875 28.0565 1.77623 27.8181 1.60041 27.6423C1.4246 27.4664 1.18614 27.3677 0.9375 27.3677C0.68886 27.3677 0.450403 27.4664 0.274587 27.6423C0.098772 27.8181 0 28.0565 0 28.3052L5.17963e-10 35.1802C6.00386e-10 36.4234 0.49386 37.6157 1.37294 38.4947C2.25201 39.3738 3.4443 39.8677 4.6875 39.8677L35.3125 39.8677C36.5557 39.8677 37.748 39.3738 38.6271 38.4947C39.5061 37.6157 40 36.4234 40 35.1802L40 28.3052C40 28.0565 39.9012 27.8181 39.7254 27.6423C39.5496 27.4664 39.3111 27.3677 39.0625 27.3677Z" fill="#DDDDDD"/>
</g>
<defs>
<clipPath id="clip0_152_417">
<rect width="40" height="40" fill="white"/>
</clipPath>
</defs>
</svg>
