<svg width="25" height="24" viewBox="0 0 25 24" fill="none" xmlns="http://www.w3.org/2000/svg">
<path d="M1.55578 23.302C1.40378 23.302 1.21378 23.226 1.09978 23.112C0.947784 22.96 0.871784 22.694 0.947784 22.466L2.80978 16.918C2.88578 16.69 2.99978 16.462 3.18978 16.31L18.8458 0.653998C19.4538 0.0459981 20.4418 0.0459981 21.0498 0.653998L23.5578 3.162C24.1658 3.77 24.1658 4.758 23.5578 5.366L7.93978 21.06C7.78778 21.212 7.55978 21.364 7.33178 21.44L1.78378 23.302C1.70778 23.302 1.63178 23.302 1.55578 23.302ZM19.9858 0.957999C19.7958 0.957999 19.5678 1.034 19.4158 1.186L3.75978 16.88C3.68378 16.956 3.60778 17.07 3.56978 17.184L1.78378 22.466L7.06578 20.68C7.17978 20.642 7.29378 20.566 7.36978 20.49L23.0258 4.834C23.3298 4.53 23.3298 3.998 23.0258 3.694L20.5178 1.186C20.4038 1.034 20.1758 0.957999 19.9858 0.957999Z" fill="#DDDDDD"/>
<path d="M19.7963 9.01397C19.6823 9.01397 19.6063 8.97597 19.5303 8.89997L15.3503 4.71997C15.1983 4.56797 15.1983 4.33997 15.3503 4.18797C15.5023 4.03597 15.7303 4.03597 15.8823 4.18797L20.0623 8.36797C20.2143 8.51997 20.2143 8.74797 20.0623 8.89997C19.9863 8.97597 19.8723 9.01397 19.7963 9.01397Z" fill="#DDDDDD"/>
<path d="M21.3159 7.49395C21.2019 7.49395 21.1259 7.45596 21.0499 7.37995L16.8699 3.19995C16.7179 3.04795 16.7179 2.81996 16.8699 2.66796C17.0219 2.51596 17.2499 2.51596 17.4019 2.66796L21.5819 6.84795C21.7339 6.99995 21.7339 7.22795 21.5819 7.37995C21.5059 7.45596 21.3919 7.49395 21.3159 7.49395Z" fill="#DDDDDD"/>
<path d="M7.63617 21.1739C7.52217 21.1739 7.44617 21.1359 7.37017 21.0599L3.19017 16.8799C3.03817 16.7279 3.03817 16.4999 3.19017 16.3479C3.34217 16.1959 3.57017 16.1959 3.72217 16.3479L7.90217 20.5279C8.05417 20.6799 8.05417 20.9079 7.90217 21.0599C7.82617 21.1359 7.71217 21.1739 7.63617 21.1739Z" fill="#DDDDDD"/>
</svg>
