<svg width="15" height="15" viewBox="0 0 15 15" fill="none" xmlns="http://www.w3.org/2000/svg">
<path d="M7.4875 15C7.24217 15 7.0069 14.9025 6.83343 14.7288C6.65995 14.5552 6.5625 14.3198 6.5625 14.0742V8.44454H0.9375C0.688859 8.44454 0.450403 8.34568 0.274587 8.16972C0.0987721 7.99376 0 7.7551 0 7.50626C0 7.25741 0.0987721 7.01875 0.274587 6.84279C0.450403 6.66683 0.688859 6.56797 0.9375 6.56797H6.5625V0.938282C6.5625 0.689434 6.66127 0.450778 6.83709 0.274816C7.0129 0.0988544 7.25136 0 7.5 0C7.74864 0 7.9871 0.0988544 8.16291 0.274816C8.33873 0.450778 8.4375 0.689434 8.4375 0.938282V6.56797H14.0625C14.3111 6.56797 14.5496 6.66683 14.7254 6.84279C14.9012 7.01875 15 7.25741 15 7.50626C15 7.7551 14.9012 7.99376 14.7254 8.16972C14.5496 8.34568 14.3111 8.44454 14.0625 8.44454H8.4375V14.0742C8.4375 14.3198 8.34004 14.5552 8.16657 14.7288C7.9931 14.9025 7.75782 15 7.5125 15" fill="#D9D9D9"/>
</svg>
