<svg width="64" height="54" viewBox="0 0 64 54" fill="none" xmlns="http://www.w3.org/2000/svg">
<g clip-path="url(#clip0_114_483)">
<path d="M27 7.5H23.25C22.9185 7.5 22.6005 7.3683 22.3661 7.13388C22.1317 6.89946 22 6.58152 22 6.25C22 5.91848 22.1317 5.60054 22.3661 5.36612C22.6005 5.1317 22.9185 5 23.25 5H27C27.3315 5 27.6495 5.1317 27.8839 5.36612C28.1183 5.60054 28.25 5.91848 28.25 6.25C28.25 6.58152 28.1183 6.89946 27.8839 7.13388C27.6495 7.3683 27.3315 7.5 27 7.5ZM33.25 12.5H23.25C22.9185 12.5 22.6005 12.3683 22.3661 12.1339C22.1317 11.8995 22 11.5815 22 11.25C22 10.9185 22.1317 10.6005 22.3661 10.3661C22.6005 10.1317 22.9185 10 23.25 10H33.25C33.5815 10 33.8995 10.1317 34.1339 10.3661C34.3683 10.6005 34.5 10.9185 34.5 11.25C34.5 11.5815 34.3683 11.8995 34.1339 12.1339C33.8995 12.3683 33.5815 12.5 33.25 12.5ZM33.25 17.5H23.25C22.9185 17.5 22.6005 17.3683 22.3661 17.1339C22.1317 16.8995 22 16.5815 22 16.25C22 15.9185 22.1317 15.6005 22.3661 15.3661C22.6005 15.1317 22.9185 15 23.25 15H33.25C33.5815 15 33.8995 15.1317 34.1339 15.3661C34.3683 15.6005 34.5 15.9185 34.5 16.25C34.5 16.5815 34.3683 16.8995 34.1339 17.1339C33.8995 17.3683 33.5815 17.5 33.25 17.5Z" fill="white"/>
<path d="M39.5 2.5V12.5C39.5 13.188 38.937 13.75 38.25 13.75C37.563 13.75 37 13.187 37 12.5V3.125C37 2.775 36.725 2.5 36.375 2.5H20.125C19.775 2.5 19.5 2.775 19.5 3.125V26.875C19.5 27.225 19.775 27.5 20.125 27.5H36.375C36.725 27.5 37 27.225 37 26.875V26.25C37 25.562 37.563 25 38.25 25C38.937 25 39.5 25.563 39.5 26.25V27.5C39.5 28.875 38.375 30 37 30H19.5C18.125 30 17 28.875 17 27.5V2.5C17 1.125 18.125 0 19.5 0H37C38.375 0 39.5 1.125 39.5 2.5Z" fill="white"/>
<path d="M46.8376 14.8521C47.2256 15.5271 46.8936 16.4431 46.0936 16.9061L34.0306 23.8691C33.9256 23.9321 33.8106 23.9761 33.6996 24.0071L30.3796 24.8321C29.9166 24.9471 29.4796 24.7881 29.2796 24.4391C29.0766 24.0911 29.1676 23.6261 29.4926 23.2981L31.8766 20.8511C31.9534 20.7666 32.044 20.696 32.1446 20.6421C32.1473 20.6343 32.1526 20.6276 32.1596 20.6231L44.2226 13.6601C45.0226 13.1971 45.9826 13.3671 46.3726 14.0411L46.8376 14.8521Z" fill="white"/>
</g>
<path d="M8.688 40.112C8.688 41.04 8.368 41.8133 7.728 42.432C7.09867 43.04 6.13333 43.344 4.832 43.344H2.688V48H1.232V36.848H4.832C6.09067 36.848 7.04533 37.152 7.696 37.76C8.35733 38.368 8.688 39.152 8.688 40.112ZM4.832 42.144C5.64267 42.144 6.24 41.968 6.624 41.616C7.008 41.264 7.2 40.7627 7.2 40.112C7.2 38.736 6.41067 38.048 4.832 38.048H2.688V42.144H4.832ZM11.9536 40.656C12.2096 40.1547 12.5723 39.7653 13.0416 39.488C13.5216 39.2107 14.103 39.072 14.7856 39.072V40.576H14.4016C12.7696 40.576 11.9536 41.4613 11.9536 43.232V48H10.4976V39.232H11.9536V40.656ZM20.2904 48.144C19.469 48.144 18.7224 47.9573 18.0504 47.584C17.389 47.2107 16.8664 46.6827 16.4824 46C16.109 45.3067 15.9224 44.5067 15.9224 43.6C15.9224 42.704 16.1144 41.9147 16.4984 41.232C16.893 40.5387 17.4264 40.0107 18.0984 39.648C18.7704 39.2747 19.5224 39.088 20.3544 39.088C21.1864 39.088 21.9384 39.2747 22.6104 39.648C23.2824 40.0107 23.8104 40.5333 24.1944 41.216C24.589 41.8987 24.7864 42.6933 24.7864 43.6C24.7864 44.5067 24.5837 45.3067 24.1784 46C23.7837 46.6827 23.245 47.2107 22.5624 47.584C21.8797 47.9573 21.1224 48.144 20.2904 48.144ZM20.2904 46.864C20.813 46.864 21.3037 46.7413 21.7624 46.496C22.221 46.2507 22.589 45.8827 22.8664 45.392C23.1544 44.9013 23.2984 44.304 23.2984 43.6C23.2984 42.896 23.1597 42.2987 22.8824 41.808C22.605 41.3173 22.2424 40.9547 21.7944 40.72C21.3464 40.4747 20.861 40.352 20.3384 40.352C19.805 40.352 19.3144 40.4747 18.8664 40.72C18.429 40.9547 18.077 41.3173 17.8104 41.808C17.5437 42.2987 17.4104 42.896 17.4104 43.6C17.4104 44.3147 17.5384 44.9173 17.7944 45.408C18.061 45.8987 18.413 46.2667 18.8504 46.512C19.2877 46.7467 19.7677 46.864 20.2904 46.864ZM27.4848 37.808C27.2074 37.808 26.9728 37.712 26.7808 37.52C26.5994 37.328 26.5088 37.0933 26.5088 36.816C26.5088 36.5387 26.5994 36.304 26.7808 36.112C26.9728 35.92 27.2074 35.824 27.4848 35.824C27.7621 35.824 27.9914 35.92 28.1728 36.112C28.3648 36.304 28.4608 36.5387 28.4608 36.816C28.4608 37.0933 28.3648 37.328 28.1728 37.52C27.9914 37.712 27.7621 37.808 27.4848 37.808ZM28.2048 49.904C28.2048 50.6827 28.0074 51.2533 27.6128 51.616C27.2181 51.9787 26.6421 52.16 25.8848 52.16H25.0367V50.928H25.6448C26.0501 50.928 26.3328 50.848 26.4928 50.688C26.6634 50.528 26.7488 50.256 26.7488 49.872V39.232H28.2048V49.904ZM38.6695 43.28C38.6695 43.5573 38.6535 43.8507 38.6215 44.16H31.6135C31.6668 45.024 31.9602 45.7013 32.4935 46.192C33.0375 46.672 33.6935 46.912 34.4615 46.912C35.0908 46.912 35.6135 46.768 36.0295 46.48C36.4562 46.1813 36.7548 45.7867 36.9255 45.296H38.4935C38.2588 46.1387 37.7895 46.8267 37.0855 47.36C36.3815 47.8827 35.5068 48.144 34.4615 48.144C33.6295 48.144 32.8828 47.9573 32.2215 47.584C31.5708 47.2107 31.0588 46.6827 30.6855 46C30.3122 45.3067 30.1255 44.5067 30.1255 43.6C30.1255 42.6933 30.3068 41.8987 30.6695 41.216C31.0322 40.5333 31.5388 40.0107 32.1895 39.648C32.8508 39.2747 33.6082 39.088 34.4615 39.088C35.2935 39.088 36.0295 39.2693 36.6695 39.632C37.3095 39.9947 37.8002 40.496 38.1415 41.136C38.4935 41.7653 38.6695 42.48 38.6695 43.28ZM37.1655 42.976C37.1655 42.4213 37.0428 41.9467 36.7975 41.552C36.5522 41.1467 36.2162 40.8427 35.7895 40.64C35.3735 40.4267 34.9095 40.32 34.3975 40.32C33.6615 40.32 33.0322 40.5547 32.5095 41.024C31.9975 41.4933 31.7042 42.144 31.6295 42.976H37.1655ZM40.0474 43.6C40.0474 42.6933 40.2287 41.904 40.5914 41.232C40.954 40.5493 41.4554 40.0213 42.0954 39.648C42.746 39.2747 43.4874 39.088 44.3194 39.088C45.3967 39.088 46.282 39.3493 46.9754 39.872C47.6794 40.3947 48.1434 41.12 48.3674 42.048H46.7994C46.65 41.5147 46.3567 41.0933 45.9194 40.784C45.4927 40.4747 44.9594 40.32 44.3194 40.32C43.4874 40.32 42.8154 40.608 42.3034 41.184C41.7914 41.7493 41.5354 42.5547 41.5354 43.6C41.5354 44.656 41.7914 45.472 42.3034 46.048C42.8154 46.624 43.4874 46.912 44.3194 46.912C44.9594 46.912 45.4927 46.7627 45.9194 46.464C46.346 46.1653 46.6394 45.7387 46.7994 45.184H48.3674C48.1327 46.08 47.6634 46.8 46.9594 47.344C46.2554 47.8773 45.3754 48.144 44.3194 48.144C43.4874 48.144 42.746 47.9573 42.0954 47.584C41.4554 47.2107 40.954 46.6827 40.5914 46C40.2287 45.3173 40.0474 44.5173 40.0474 43.6ZM52.0861 40.432V45.6C52.0861 46.0267 52.1768 46.3307 52.3581 46.512C52.5395 46.6827 52.8541 46.768 53.3021 46.768H54.3741V48H53.0621C52.2515 48 51.6435 47.8133 51.2381 47.44C50.8328 47.0667 50.6301 46.4533 50.6301 45.6V40.432H49.4941V39.232H50.6301V37.024H52.0861V39.232H54.3741V40.432H52.0861ZM59.2423 48.144C58.5703 48.144 57.9676 48.032 57.4343 47.808C56.9009 47.5733 56.4796 47.2533 56.1703 46.848C55.8609 46.432 55.6903 45.9573 55.6583 45.424H57.1623C57.2049 45.8613 57.4076 46.2187 57.7703 46.496C58.1436 46.7733 58.6289 46.912 59.2263 46.912C59.7809 46.912 60.2183 46.7893 60.5383 46.544C60.8583 46.2987 61.0183 45.9893 61.0183 45.616C61.0183 45.232 60.8476 44.9493 60.5063 44.768C60.1649 44.576 59.6369 44.3893 58.9223 44.208C58.2716 44.0373 57.7383 43.8667 57.3223 43.696C56.9169 43.5147 56.5649 43.2533 56.2663 42.912C55.9783 42.56 55.8343 42.1013 55.8343 41.536C55.8343 41.088 55.9676 40.6773 56.2343 40.304C56.5009 39.9307 56.8796 39.6373 57.3703 39.424C57.8609 39.2 58.4209 39.088 59.0503 39.088C60.0209 39.088 60.8049 39.3333 61.4023 39.824C61.9996 40.3147 62.3196 40.9867 62.3623 41.84H60.9063C60.8743 41.3813 60.6876 41.0133 60.3463 40.736C60.0156 40.4587 59.5676 40.32 59.0023 40.32C58.4796 40.32 58.0636 40.432 57.7543 40.656C57.4449 40.88 57.2903 41.1733 57.2903 41.536C57.2903 41.824 57.3809 42.064 57.5623 42.256C57.7543 42.4373 57.9889 42.5867 58.2663 42.704C58.5543 42.8107 58.9489 42.9333 59.4503 43.072C60.0796 43.2427 60.5916 43.4133 60.9863 43.584C61.3809 43.744 61.7169 43.9893 61.9943 44.32C62.2823 44.6507 62.4316 45.0827 62.4423 45.616C62.4423 46.096 62.3089 46.528 62.0423 46.912C61.7756 47.296 61.3969 47.6 60.9063 47.824C60.4263 48.0373 59.8716 48.144 59.2423 48.144Z" fill="white"/>
<defs>
<clipPath id="clip0_114_483">
<rect width="30" height="30" fill="white" transform="translate(17)"/>
</clipPath>
</defs>
</svg>
