<svg width="20" height="20" viewBox="0 0 20 20" fill="none" xmlns="http://www.w3.org/2000/svg">
<g clip-path="url(#clip0_333_56)">
<mask id="mask0_333_56" style="mask-type:luminance" maskUnits="userSpaceOnUse" x="0" y="0" width="20" height="20">
<path d="M20 0H0V20H20V0Z" fill="white"/>
</mask>
<g mask="url(#mask0_333_56)">
<path d="M8.95241 13.595C9.95063 13.595 10.8861 13.2937 11.6645 12.7789L14.4142 15.5349C14.5963 15.7107 14.8286 15.7986 15.0797 15.7986C15.6007 15.7986 15.9837 15.3905 15.9837 14.8758C15.9837 14.6372 15.9021 14.4049 15.7263 14.2291L12.9954 11.4857C13.5604 10.6821 13.8931 9.70904 13.8931 8.65432C13.8931 5.936 11.6708 3.71362 8.95241 3.71362C6.24038 3.71362 4.01172 5.936 4.01172 8.65432C4.01172 11.3727 6.2341 13.595 8.95241 13.595ZM8.95241 12.2767C6.96233 12.2767 5.33008 10.6444 5.33008 8.65432C5.33008 6.66424 6.96233 5.03198 8.95241 5.03198C10.9426 5.03198 12.5748 6.66424 12.5748 8.65432C12.5748 10.6444 10.9426 12.2767 8.95241 12.2767Z" fill="#D9D9D9"/>
</g>
</g>
<defs>
<clipPath id="clip0_333_56">
<rect width="20" height="20" fill="white"/>
</clipPath>
</defs>
</svg>
