<svg width="23" height="29" viewBox="0 0 23 29" fill="none" xmlns="http://www.w3.org/2000/svg">
<path d="M18.1885 28.7339H4.81255C3.14055 28.7339 1.81055 27.3659 1.81055 25.7319V8.32788H21.2285V25.7319C21.1905 27.4039 19.8605 28.7339 18.1885 28.7339ZM2.49455 9.01188V25.7319C2.49455 27.0239 3.52055 28.0499 4.81255 28.0499H18.1885C19.4805 28.0499 20.5065 27.0239 20.5065 25.7319V9.01188H2.49455Z" fill="#DDDDDD"/>
<path d="M21.5328 9.01196H1.46884C0.784844 9.01196 0.214844 8.44196 0.214844 7.75796V5.62996C0.214844 4.10996 1.46884 2.85596 2.98884 2.85596H20.0508C21.5708 2.85596 22.8248 4.10996 22.8248 5.62996V7.71996C22.7868 8.44196 22.2168 9.01196 21.5328 9.01196ZM2.95084 3.57796C1.81084 3.57796 0.898844 4.48996 0.898844 5.62996V7.71996C0.898844 8.02396 1.16484 8.28996 1.46884 8.28996H21.5328C21.8368 8.28996 22.1028 8.02396 22.1028 7.71996V5.62996C22.1028 4.48996 21.1908 3.57796 20.0508 3.57796H2.95084Z" fill="#DDDDDD"/>
<path d="M17.1233 23.1481C16.9333 23.1481 16.7812 22.9961 16.7812 22.8061V11.5581C16.7812 11.3681 16.9333 11.2161 17.1233 11.2161C17.3133 11.2161 17.4652 11.3681 17.4652 11.5581V22.7681C17.4652 22.9961 17.3133 23.1481 17.1233 23.1481Z" fill="#DDDDDD"/>
<path d="M13.3615 23.1481C13.1715 23.1481 13.0195 22.9961 13.0195 22.8061V11.5581C13.0195 11.3681 13.1715 11.2161 13.3615 11.2161C13.5515 11.2161 13.7035 11.3681 13.7035 11.5581V22.7681C13.7035 22.9961 13.5515 23.1481 13.3615 23.1481Z" fill="#DDDDDD"/>
<path d="M9.63887 23.1481C9.44887 23.1481 9.29688 22.9961 9.29688 22.8061V11.5581C9.29688 11.3681 9.44887 11.2161 9.63887 11.2161C9.82887 11.2161 9.98087 11.3681 9.98087 11.5581V22.7681C9.98087 22.9961 9.82887 23.1481 9.63887 23.1481Z" fill="#DDDDDD"/>
<path d="M5.8752 23.1481C5.6852 23.1481 5.5332 22.9961 5.5332 22.8061V11.5581C5.5332 11.3681 5.6852 11.2161 5.8752 11.2161C6.0652 11.2161 6.2172 11.3681 6.2172 11.5581V22.7681C6.2552 22.9961 6.0652 23.1481 5.8752 23.1481Z" fill="#DDDDDD"/>
<path d="M14.1598 3.57811H8.83984V2.81811C8.83984 1.67811 9.75184 0.766113 10.8918 0.766113H12.1078C13.2478 0.766113 14.1598 1.67811 14.1598 2.81811V3.57811ZM9.52384 2.89411H13.4378V2.85611C13.4378 2.09611 12.8298 1.48811 12.0698 1.48811H10.8538C10.0938 1.48811 9.48584 2.09611 9.48584 2.85611V2.89411H9.52384Z" fill="#DDDDDD"/>
</svg>
