<svg width="27" height="27" viewBox="0 0 27 27" fill="none" xmlns="http://www.w3.org/2000/svg">
<path d="M10.9206 18.296C11.0655 18.296 11.183 18.1785 11.183 18.0336C11.183 17.8887 11.0655 17.7712 10.9206 17.7712C10.7757 17.7712 10.6582 17.8887 10.6582 18.0336C10.6582 18.1785 10.7757 18.296 10.9206 18.296Z" fill="#FFC107" stroke="#FFC107" stroke-width="0.576"/>
<path d="M10.9102 16.4425V9.05908" stroke="#FFC107" stroke-width="0.576" stroke-linecap="round" stroke-linejoin="round"/>
<path d="M15.8894 18.2957C16.0311 18.2957 16.146 18.1783 16.146 18.0334C16.146 17.8885 16.0311 17.771 15.8894 17.771C15.7477 17.771 15.6328 17.8885 15.6328 18.0334C15.6328 18.1783 15.7477 18.2957 15.8894 18.2957Z" fill="#FFC107" stroke="#FFC107" stroke-width="0.576"/>
<path d="M15.8789 16.4425V9.05908" stroke="#FFC107" stroke-width="0.576" stroke-linecap="round" stroke-linejoin="round"/>
<path d="M13.5 25.5938C20.1792 25.5938 25.5938 20.1792 25.5938 13.5C25.5938 6.82081 20.1792 1.40625 13.5 1.40625C6.82081 1.40625 1.40625 6.82081 1.40625 13.5C1.40625 20.1792 6.82081 25.5938 13.5 25.5938Z" stroke="#FFC107" stroke-width="0.576" stroke-linecap="round" stroke-linejoin="round"/>
</svg>
