<svg width="27" height="28" viewBox="0 0 27 28" fill="none" xmlns="http://www.w3.org/2000/svg">
<path d="M13.4011 17.9403C13.5428 17.9403 13.6577 17.8228 13.6577 17.6779C13.6577 17.533 13.5428 17.4155 13.4011 17.4155C13.2594 17.4155 13.1445 17.533 13.1445 17.6779C13.1445 17.8228 13.2594 17.9403 13.4011 17.9403Z" fill="#EA3865" stroke="#EA3865" stroke-width="0.576"/>
<path d="M13.3906 16.087V8.70361" stroke="#EA3865" stroke-width="0.576" stroke-linecap="round" stroke-linejoin="round"/>
<path d="M9.50066 17.8355C9.64556 17.8355 9.76303 17.7181 9.76303 17.5732C9.76303 17.4283 9.64556 17.3108 9.50066 17.3108C9.35575 17.3108 9.23828 17.4283 9.23828 17.5732C9.23828 17.7181 9.35575 17.8355 9.50066 17.8355Z" fill="#EA3865" stroke="#EA3865" stroke-width="0.576"/>
<path d="M9.49023 15.982V8.59863" stroke="#EA3865" stroke-width="0.576" stroke-linecap="round" stroke-linejoin="round"/>
<path d="M17.3151 17.8355C17.46 17.8355 17.5775 17.7181 17.5775 17.5732C17.5775 17.4283 17.46 17.3108 17.3151 17.3108C17.1702 17.3108 17.0527 17.4283 17.0527 17.5732C17.0527 17.7181 17.1702 17.8355 17.3151 17.8355Z" fill="#EA3865" stroke="#EA3865" stroke-width="0.576"/>
<path d="M17.3047 15.982V8.59863" stroke="#EA3865" stroke-width="0.576" stroke-linecap="round" stroke-linejoin="round"/>
<path d="M13.5 25.8438C20.1792 25.8438 25.5938 20.4292 25.5938 13.75C25.5938 7.07081 20.1792 1.65625 13.5 1.65625C6.82081 1.65625 1.40625 7.07081 1.40625 13.75C1.40625 20.4292 6.82081 25.8438 13.5 25.8438Z" stroke="#EA3865" stroke-width="0.576" stroke-linecap="round" stroke-linejoin="round"/>
</svg>
