<svg width="35" height="36" viewBox="0 0 35 36" fill="none" xmlns="http://www.w3.org/2000/svg">
<path d="M17.5 31.125C14.9041 31.125 12.3665 30.3552 10.2081 28.913C8.04975 27.4708 6.36749 25.421 5.37409 23.0227C4.38069 20.6244 4.12077 17.9854 4.6272 15.4394C5.13363 12.8934 6.38367 10.5548 8.21923 8.71923C10.0548 6.88367 12.3934 5.63363 14.9394 5.1272C17.4854 4.62077 20.1244 4.88069 22.5227 5.87409C24.921 6.86749 26.9708 8.54975 28.413 10.7081C29.8552 12.8665 30.625 15.4041 30.625 18C30.625 21.481 29.2422 24.8194 26.7808 27.2808C24.3194 29.7422 20.981 31.125 17.5 31.125ZM17.5 5.96876C15.1205 5.96876 12.7943 6.67438 10.8158 7.99639C8.83727 9.3184 7.2952 11.1974 6.38458 13.3958C5.47396 15.5943 5.2357 18.0134 5.69993 20.3472C6.16416 22.681 7.31003 24.8248 8.99263 26.5074C10.6752 28.19 12.819 29.3358 15.1528 29.8001C17.4867 30.2643 19.9057 30.026 22.1042 29.1154C24.3026 28.2048 26.1816 26.6627 27.5036 24.6842C28.8256 22.7057 29.5313 20.3796 29.5313 18C29.5313 14.8091 28.2637 11.7489 26.0074 9.49263C23.7511 7.23633 20.6909 5.96876 17.5 5.96876Z" fill="#C7C6C6"/>
<path d="M15.0393 22.6485C14.9674 22.6489 14.896 22.6351 14.8294 22.6079C14.7628 22.5807 14.7022 22.5406 14.6511 22.4899L11.3698 19.2086C11.2668 19.1057 11.209 18.966 11.209 18.8204C11.209 18.6747 11.2668 18.5351 11.3698 18.4321C11.4728 18.3291 11.6125 18.2712 11.7581 18.2712C11.9037 18.2712 12.0434 18.3291 12.1464 18.4321L15.0393 21.3305L22.8542 13.5102C22.9572 13.4072 23.0968 13.3494 23.2425 13.3494C23.3881 13.3494 23.5278 13.4072 23.6308 13.5102C23.7337 13.6132 23.7916 13.7528 23.7916 13.8985C23.7916 14.0441 23.7337 14.1838 23.6308 14.2868L15.4276 22.4899C15.3765 22.5406 15.3159 22.5807 15.2493 22.6079C15.1827 22.6351 15.1113 22.6489 15.0393 22.6485Z" fill="#C7C6C6"/>
</svg>
