<svg width="38" height="38" viewBox="0 0 38 38" fill="none" xmlns="http://www.w3.org/2000/svg">
<path d="M25.6885 32.9839H12.3125C10.6405 32.9839 9.31055 31.6159 9.31055 29.9819V12.5779H28.7285V29.9819C28.6905 31.6539 27.3605 32.9839 25.6885 32.9839ZM9.99455 13.2619V29.9819C9.99455 31.2739 11.0205 32.2999 12.3125 32.2999H25.6885C26.9805 32.2999 28.0065 31.2739 28.0065 29.9819V13.2619H9.99455Z" fill="#DDDDDD"/>
<path d="M29.0328 13.262H8.96884C8.28484 13.262 7.71484 12.692 7.71484 12.008V9.87996C7.71484 8.35996 8.96884 7.10596 10.4888 7.10596H27.5508C29.0708 7.10596 30.3248 8.35996 30.3248 9.87996V11.97C30.2868 12.692 29.7168 13.262 29.0328 13.262ZM10.4508 7.82796C9.31084 7.82796 8.39884 8.73996 8.39884 9.87996V11.97C8.39884 12.274 8.66484 12.54 8.96884 12.54H29.0328C29.3368 12.54 29.6028 12.274 29.6028 11.97V9.87996C29.6028 8.73996 28.6908 7.82796 27.5508 7.82796H10.4508Z" fill="#DDDDDD"/>
<path d="M24.6233 27.3981C24.4333 27.3981 24.2812 27.2461 24.2812 27.0561V15.8081C24.2812 15.6181 24.4333 15.4661 24.6233 15.4661C24.8133 15.4661 24.9652 15.6181 24.9652 15.8081V27.0181C24.9652 27.2461 24.8133 27.3981 24.6233 27.3981Z" fill="#DDDDDD"/>
<path d="M20.8615 27.3981C20.6715 27.3981 20.5195 27.2461 20.5195 27.0561V15.8081C20.5195 15.6181 20.6715 15.4661 20.8615 15.4661C21.0515 15.4661 21.2035 15.6181 21.2035 15.8081V27.0181C21.2035 27.2461 21.0515 27.3981 20.8615 27.3981Z" fill="#DDDDDD"/>
<path d="M17.1389 27.3981C16.9489 27.3981 16.7969 27.2461 16.7969 27.0561V15.8081C16.7969 15.6181 16.9489 15.4661 17.1389 15.4661C17.3289 15.4661 17.4809 15.6181 17.4809 15.8081V27.0181C17.4809 27.2461 17.3289 27.3981 17.1389 27.3981Z" fill="#DDDDDD"/>
<path d="M13.3752 27.3981C13.1852 27.3981 13.0332 27.2461 13.0332 27.0561V15.8081C13.0332 15.6181 13.1852 15.4661 13.3752 15.4661C13.5652 15.4661 13.7172 15.6181 13.7172 15.8081V27.0181C13.7552 27.2461 13.5652 27.3981 13.3752 27.3981Z" fill="#DDDDDD"/>
<path d="M21.6598 7.82811H16.3398V7.06811C16.3398 5.92811 17.2518 5.01611 18.3918 5.01611H19.6078C20.7478 5.01611 21.6598 5.92811 21.6598 7.06811V7.82811ZM17.0238 7.14411H20.9378V7.10611C20.9378 6.34611 20.3298 5.73811 19.5698 5.73811H18.3538C17.5938 5.73811 16.9858 6.34611 16.9858 7.10611V7.14411H17.0238Z" fill="#DDDDDD"/>
</svg>
