<svg width="38" height="38" viewBox="0 0 38 38" fill="none" xmlns="http://www.w3.org/2000/svg">
<path d="M8.05578 30.552C7.90378 30.552 7.71378 30.476 7.59978 30.362C7.44778 30.21 7.37178 29.944 7.44778 29.716L9.30978 24.168C9.38578 23.94 9.49978 23.712 9.68978 23.56L25.3458 7.904C25.9538 7.296 26.9418 7.296 27.5498 7.904L30.0578 10.412C30.6658 11.02 30.6658 12.008 30.0578 12.616L14.4398 28.31C14.2878 28.462 14.0598 28.614 13.8318 28.69L8.28378 30.552C8.20778 30.552 8.13178 30.552 8.05578 30.552ZM26.4858 8.208C26.2958 8.208 26.0678 8.284 25.9158 8.436L10.2598 24.13C10.1838 24.206 10.1078 24.32 10.0698 24.434L8.28378 29.716L13.5658 27.93C13.6798 27.892 13.7938 27.816 13.8698 27.74L29.5258 12.084C29.8298 11.78 29.8298 11.248 29.5258 10.944L27.0178 8.436C26.9038 8.284 26.6758 8.208 26.4858 8.208Z" fill="#DDDDDD"/>
<path d="M26.2963 16.264C26.1823 16.264 26.1063 16.226 26.0303 16.15L21.8503 11.97C21.6983 11.818 21.6983 11.59 21.8503 11.438C22.0023 11.286 22.2303 11.286 22.3823 11.438L26.5623 15.618C26.7143 15.77 26.7143 15.998 26.5623 16.15C26.4863 16.226 26.3723 16.264 26.2963 16.264Z" fill="#DDDDDD"/>
<path d="M27.8159 14.744C27.7019 14.744 27.6259 14.706 27.5499 14.63L23.3699 10.45C23.2179 10.298 23.2179 10.07 23.3699 9.91796C23.5219 9.76596 23.7499 9.76596 23.9019 9.91796L28.0819 14.098C28.2339 14.25 28.2339 14.478 28.0819 14.63C28.0059 14.706 27.8919 14.744 27.8159 14.744Z" fill="#DDDDDD"/>
<path d="M14.1362 28.4239C14.0222 28.4239 13.9462 28.3859 13.8702 28.3099L9.69017 24.1299C9.53817 23.9779 9.53817 23.7499 9.69017 23.5979C9.84217 23.4459 10.0702 23.4459 10.2222 23.5979L14.4022 27.7779C14.5542 27.9299 14.5542 28.1579 14.4022 28.3099C14.3262 28.3859 14.2122 28.4239 14.1362 28.4239Z" fill="#DDDDDD"/>
</svg>
