<svg width="27" height="24" viewBox="0 0 27 24" fill="none" xmlns="http://www.w3.org/2000/svg">
<path d="M23.9297 6.98437V6.72656C23.9297 5.4375 22.875 4.38281 21.5859 4.38281H15.7266C14.9531 4.38281 14.3203 3.63281 14.3203 2.85938V2.97656C14.3203 1.6875 13.2656 0.632812 11.9766 0.632812H3.30469C2.01562 0.632812 0.960938 1.6875 0.960938 2.97656V21.0234C0.960938 22.3125 2.01562 23.3672 3.30469 23.3672H23.6953C24.9844 23.3672 26.0391 22.3125 26.0391 21.0234V9.30469C26.0391 8.08594 25.1016 7.10156 23.9297 6.98437ZM3.30469 22.4297C2.53125 22.4297 1.89844 21.7969 1.89844 21.0234V2.97656C1.89844 2.20312 2.53125 1.57031 3.30469 1.57031H11.9766C12.75 1.57031 13.3828 2.20312 13.3828 2.97656C13.3828 4.26562 14.4375 5.32031 15.7266 5.32031H21.5859C22.3594 5.32031 22.9922 5.95312 22.9922 6.72656V6.96094H7.05469C5.76562 6.96094 4.71094 8.01562 4.71094 9.30469V21.0234C4.71094 21.7969 4.07812 22.4297 3.30469 22.4297ZM25.1016 21.0234C25.1016 21.7969 24.4688 22.4297 23.6953 22.4297H5.17969C5.48438 22.0312 5.64844 21.5391 5.64844 21.0234V9.30469C5.64844 8.53125 6.28125 7.89844 7.05469 7.89844H23.6953C24.4688 7.89844 25.1016 8.53125 25.1016 9.30469V21.0234Z" fill="#C7C6C6"/>
</svg>
