<svg width="30" height="24" viewBox="0 0 30 24" fill="none" xmlns="http://www.w3.org/2000/svg">
<path d="M17.3114 14.9822H12.9666C11.7718 14.9822 10.7942 15.9935 10.7942 17.2295V21.7241C10.7942 22.9602 11.7718 23.9715 12.9666 23.9715H17.3114C18.5062 23.9715 19.4838 22.9602 19.4838 21.7241V17.2295C19.4838 15.9935 18.5062 14.9822 17.3114 14.9822ZM27.4086 0H23.0638C21.869 0 20.8914 1.0113 20.8914 2.24732V6.74197C20.8914 7.978 21.869 8.9893 23.0638 8.9893H27.4086C28.6034 8.9893 29.581 7.978 29.581 6.74197V2.24732C29.581 1.0113 28.6442 0 27.4086 0ZM9.3459 2.24732C9.3459 1.0113 8.36832 0 7.17349 0H2.82866C1.63384 0 0.65625 1.0113 0.65625 2.24732V6.74197C0.65625 7.978 1.63384 8.9893 2.82866 8.9893H6.44166L9.74735 14.9822C10.2511 14.0926 11.1744 13.4839 12.2425 13.4839L9.3459 8.21678V5.99287H19.4838V2.99643H9.3459V2.24732Z" fill="black"/>
</svg>
